<?xml version="1.0" encoding="iso-8859-1"?>
<!-- Generator: Adobe Illustrator 19.0.0, SVG Export Plug-In . SVG Version: 6.00 Build 0)  -->
<svg version="1.1" id="Layer_1" xmlns="http://www.w3.org/2000/svg" xmlns:xlink="http://www.w3.org/1999/xlink" x="0px" y="0px"
	 viewBox="0 0 508 508" style="enable-background:new 0 0 508 508;" xml:space="preserve">
<circle style="fill:#84DBFF;" cx="254" cy="254" r="254"/>
<path style="fill:#324A5E;" d="M359.2,451.2c-69.6-11.6-140.8-11.6-210.4,0c18-50,19.6-224.8,19.6-224.8H340
	C339.6,226.8,341.2,401.2,359.2,451.2z"/>
<path style="fill:#FFFFFF;" d="M166.4,291.6c-0.4,8-0.8,16-1.2,24.4h177.2c-0.4-8.4-0.8-16.8-1.2-24.4H166.4z"/>
<path style="fill:#2B3B4E;" d="M254,235.2c28.8,0,57.6,2,86,6c0-9.2-0.4-14.8-0.4-14.8H168.4c0,0,0,5.6-0.4,14.8
	C196.4,237.2,225.2,235.2,254,235.2z"/>
<path style="fill:#FFFFFF;" d="M370.8,238.4c-77.2-14.8-156.4-14.8-233.6,0c-4.8,0.8-9.2-2-10.4-6.8l0,0c-0.8-4.8,2-9.2,7.2-10
	c79.2-15.6,160.8-15.6,240-0.4c4.8,0.8,8,5.6,7.2,10l0,0C380,236,375.6,239.2,370.8,238.4z"/>
<g>
	<polygon style="fill:#54C0EB;" points="192.4,118.4 200,134.4 218,137.2 205.2,149.6 208,167.2 192.4,158.8 176.4,167.2 
		179.6,149.6 166.8,137.2 184.4,134.4 	"/>
	<polygon style="fill:#54C0EB;" points="243.6,158 248.8,169.2 261.2,170.8 252.4,179.2 254.4,191.2 243.6,185.6 232.8,191.2 
		234.8,179.2 226,170.8 238,169.2 	"/>
	<polygon style="fill:#54C0EB;" points="270,92.4 276.8,106.4 292.4,108.8 281.2,119.6 283.6,135.2 270,128 256,135.2 258.8,119.6 
		247.2,108.8 262.8,106.4 	"/>
	<polygon style="fill:#54C0EB;" points="284.4,148.8 288.8,158 298.8,159.6 291.6,166.8 293.6,176.8 284.4,172 275.6,176.8 
		277.2,166.8 270,159.6 280,158 	"/>
	<polygon style="fill:#54C0EB;" points="313.6,171.6 316.8,177.6 323.6,178.8 318.8,183.6 319.6,190.4 313.6,187.2 307.6,190.4 
		308.8,183.6 303.6,178.8 310.4,177.6 	"/>
	<polygon style="fill:#54C0EB;" points="328.4,134 332.4,142 341.2,143.6 334.8,149.6 336.4,158.4 328.4,154.4 320.8,158.4 
		322,149.6 316,143.6 324.8,142 	"/>
	<polygon style="fill:#54C0EB;" points="193.6,63.2 198,72 208,73.6 200.8,80.8 202.4,90.8 193.6,86 184.4,90.8 186,80.8 
		178.8,73.6 188.8,72 	"/>
	<polygon style="fill:#54C0EB;" points="222.8,85.6 225.6,92 232.4,92.8 227.6,97.6 228.8,104.4 222.8,101.2 216.4,104.4 
		217.6,97.6 212.8,92.8 219.6,92 	"/>
	<polygon style="fill:#54C0EB;" points="237.6,48.4 241.6,56.4 250.4,57.6 244,63.6 245.6,72.4 237.6,68.4 229.6,72.4 231.2,63.6 
		224.8,57.6 233.6,56.4 	"/>
</g>
<g>
</g>
<g>
</g>
<g>
</g>
<g>
</g>
<g>
</g>
<g>
</g>
<g>
</g>
<g>
</g>
<g>
</g>
<g>
</g>
<g>
</g>
<g>
</g>
<g>
</g>
<g>
</g>
<g>
</g>
</svg>
